PathFileType	4	(X/Y/Z)	C:/Users/opensim2020/Desktop/walking_exp_matlab/subject06_walking13_straight_02.trc	
DataRate	CameraRate	NumFrames	NumMarkers	Units	OrigDataRate	OrigDataStartFrame	OrigNumFrames	
100.00	100.00	8	50	mm	100.00	1561	199	
Frame#	Time	LFHD			RFHD			LBHD			RBHD			C7			T10			CLAV			STRN			RBAK			LSHO			LUPA			LELB			LFRM			LWRA			LWRB			LFIN			RSHO			RUPA			RELB			RFRM			RWRA			RWRB			RFIN			LASI			RASI			LPSI			RPSI			LTHI			LKNE			LTIB			LANK			LHEE			LTOE			RTHI			RKNE			RTIB			RANK			RHEE			RTOE			*39			*40			*41			*42			*43			*44			*45			*46			*47			*48			*49			
		X1	Y1	Z1	X2	Y2	Z2	X3	Y3	Z3	X4	Y4	Z4	X5	Y5	Z5	X6	Y6	Z6	X7	Y7	Z7	X8	Y8	Z8	X9	Y9	Z9	X10	Y10	Z10	X11	Y11	Z11	X12	Y12	Z12	X13	Y13	Z13	X14	Y14	Z14	X15	Y15	Z15	X16	Y16	Z16	X17	Y17	Z17	X18	Y18	Z18	X19	Y19	Z19	X20	Y20	Z20	X21	Y21	Z21	X22	Y22	Z22	X23	Y23	Z23	X24	Y24	Z24	X25	Y25	Z25	X26	Y26	Z26	X27	Y27	Z27	X28	Y28	Z28	X29	Y29	Z29	X30	Y30	Z30	X31	Y31	Z31	X32	Y32	Z32	X33	Y33	Z33	X34	Y34	Z34	X35	Y35	Z35	X36	Y36	Z36	X37	Y37	Z37	X38	Y38	Z38	X39	Y39	Z39	X40	Y40	Z40	X41	Y41	Z41	X42	Y42	Z42	X43	Y43	Z43	X44	Y44	Z44	X45	Y45	Z45	X46	Y46	Z46	X47	Y47	Z47	X48	Y48	Z48	X49	Y49	Z49	X50	Y50	Z50	

25	0.240	1509.62634	765.41290	1639.17737	1378.30664	765.70282	1628.35901	1509.57947	903.17505	1595.76477	1380.93945	901.33112	1590.56628	1447.64990	913.73926	1433.18176	1433.75769	950.78613	1102.86108	1450.44482	803.70032	1353.76013	1451.96423	766.06946	1177.74512	1359.62952	985.97546	1264.34668	1610.24182	872.47369	1383.08704	1670.13550	932.69360	1189.54382	1673.08240	972.93225	1084.36169	1693.69080	999.72076	936.04987	1657.33362	971.63995	806.55084	1685.80676	1035.54993	822.40253	1686.64124	1024.08032	731.17297	1289.16638	843.12482	1389.51807	1194.33276	842.36371	1192.51636	1178.21277	798.49194	1080.15051	1170.45337	719.53241	992.21979	1220.12048	592.79199	924.58990	1177.86804	630.04877	889.11108	1181.41882	552.95380	858.85687	1538.78296	767.28015	945.54858	1319.25488	780.03589	945.12018	1520.98730	928.72760	968.00684	1351.95911	929.05780	972.47754	1614.41675	776.22217	636.84741	1584.64514	722.43420	486.65933	1582.30774	682.12195	233.82970	1546.40137	622.18774	69.27458	1498.26819	653.75250	46.46768	1545.39075	472.36337	74.55891	1284.28345	881.33319	614.55408	1308.49084	907.35315	490.20123	1321.18359	1058.65649	262.83853	1372.50134	1149.80896	100.88213	1416.95691	1196.49243	90.60478	1382.21008	1011.71759	35.72661	1450.09497	861.98572	1685.81067																														 
26	0.250	1510.81042	754.92621	1638.83777	1379.47461	755.50854	1628.08459	1510.93530	892.66357	1595.33533	1382.39148	891.08136	1590.22656	1449.10657	903.37146	1432.69226	1435.35193	939.39648	1102.26721	1451.67358	793.01227	1353.53247	1453.02332	755.18579	1177.54517	1361.34375	975.38318	1263.64404	1611.57727	861.42365	1382.63354	1671.84375	920.81812	1188.83301	1675.01074	960.76550	1083.60315	1696.03967	987.42401	935.53186	1659.30627	959.35278	805.86639	1688.14709	1023.07971	821.68176	1688.98694	1011.57141	730.42804	1290.50208	832.99792	1389.09399	1195.95068	832.37201	1191.98669	1180.01917	788.86127	1079.32043	1171.76587	710.87988	990.47699	1220.77014	584.66895	921.35638	1178.42041	622.82831	886.36554	1181.85730	545.90820	855.16333	1539.61914	755.64526	945.32324	1320.43201	768.50153	944.92377	1522.36426	916.86389	967.50012	1353.34570	917.55585	972.02661	1613.84326	764.09845	636.90222	1584.67249	709.74725	486.82004	1581.60327	673.88983	232.93231	1545.27698	618.50500	67.58344	1496.98120	651.52905	47.00830	1542.81836	468.66763	65.30048	1284.80798	869.90045	614.10535	1308.68713	895.30914	489.52127	1320.71631	1051.64624	265.20715	1371.38086	1146.93738	105.56847	1415.68689	1193.83936	96.87046	1382.01221	1011.26135	35.90160	1451.50208	851.67017	1685.42920																														 
27	0.260	1512.01538	744.39105	1638.99365	1380.64673	745.20630	1628.24695	1512.36816	882.12231	1595.22156	1383.78076	880.72186	1590.09314	1450.62305	892.98297	1432.55029	1436.96875	927.77661	1101.86511	1452.92700	782.23462	1353.65417	1454.03748	745.31641	1177.55481	1363.27014	964.82666	1263.16675	1613.05554	850.20404	1382.47473	1673.63708	908.57831	1188.28845	1677.04492	948.14587	1082.94153	1698.29077	974.27557	934.89398	1661.19373	946.35400	805.26111	1690.99536	1010.01398	821.22931	1691.43665	998.20239	729.77582	1291.75098	822.81122	1388.95154	1197.65771	822.49463	1191.55139	1181.81152	779.58020	1078.60986	1173.16797	702.64740	988.72333	1221.42053	577.11041	917.83405	1179.30212	615.97125	883.33600	1182.27539	539.49200	850.99396	1541.24402	743.33246	945.52277	1321.44385	756.44733	945.08459	1523.74573	904.84167	967.52155	1354.68713	905.95581	971.85101	1613.55371	751.52087	637.44965	1585.15332	697.71417	487.10699	1580.60193	665.42676	232.98622	1545.28333	615.26129	67.41589	1496.92358	649.24469	48.76196	1540.76367	465.00253	55.12450	1285.50024	857.62415	613.62848	1308.90527	882.54474	488.95334	1319.97974	1044.12927	268.14572	1370.18311	1143.44910	110.85476	1414.32800	1190.45154	103.94559	1381.62646	1011.51202	35.76266	1452.85632	841.32330	1685.38416																														 
28	0.270	1513.22778	733.84393	1639.83020	1381.85413	734.81989	1629.02942	1513.87024	871.47729	1595.63354	1385.26111	870.31940	1590.50830	1452.35474	882.56329	1433.00195	1438.30334	916.25378	1101.92651	1454.18188	771.58026	1354.35400	1455.21362	734.12390	1178.29102	1365.46191	954.17761	1263.10010	1614.68201	839.00079	1382.70105	1675.55054	896.00134	1187.98462	1679.23157	935.09930	1082.43994	1700.50696	960.49707	934.30133	1663.08667	932.57288	804.81659	1693.54077	995.94342	820.60834	1693.93591	983.89642	729.21393	1292.92053	812.62756	1389.18835	1199.24219	813.02570	1191.27124	1183.55774	770.54358	1078.03369	1174.59900	694.83069	986.95557	1221.99170	570.20099	913.99194	1180.20422	609.70789	880.16663	1182.76367	533.81012	846.58203	1542.16162	731.53339	946.16608	1322.62317	744.64044	945.43671	1524.84656	892.64294	968.22668	1355.81274	894.16571	972.05157	1613.88110	738.90564	638.68292	1586.03406	686.18750	488.00018	1581.55286	656.57349	234.05687	1545.78137	610.96594	67.47498	1498.10291	646.65729	50.14029	1538.63123	461.68225	49.56323	1286.16785	844.73053	613.17474	1309.34351	868.63495	488.23810	1319.64001	1035.50000	271.37885	1369.08386	1139.06274	117.01424	1413.23010	1186.14539	112.25003	1381.68079	1011.12390	35.74220	1454.23633	831.03961	1685.93005																														 
29	0.280	1514.40039	723.18591	1640.94373	1383.02844	724.53156	1630.13330	1515.29919	860.73578	1596.62805	1386.73877	859.89740	1591.46704	1453.98425	871.81580	1433.98950	1439.62549	904.86292	1102.55566	1455.44385	760.99872	1355.51807	1456.31555	723.18408	1179.43494	1367.59863	943.48462	1263.55640	1616.27856	827.71899	1383.24194	1677.47974	883.07935	1187.99695	1681.55725	921.45715	1082.17419	1702.95740	946.01025	933.91193	1664.90308	918.06415	804.54889	1696.07642	980.93707	819.91663	1696.52014	968.68451	728.86603	1294.02246	802.40356	1389.82935	1200.97119	803.51599	1191.35413	1185.29773	761.75110	1077.71667	1176.06494	687.53552	985.25610	1222.58643	563.88843	909.92108	1181.11206	604.38306	876.91663	1183.13538	529.27081	841.91962	1543.68762	719.16937	947.59827	1323.90747	733.04321	946.20142	1525.80566	881.32739	969.94611	1356.74304	882.31561	972.54779	1614.77283	726.48560	640.68823	1587.29895	674.74725	489.37167	1583.10315	647.90326	235.30821	1545.39539	606.82471	67.78194	1498.42700	644.03033	51.63898	1538.10706	458.92838	48.44220	1286.63025	831.10626	613.03571	1309.59949	853.41443	487.59235	1319.86023	1025.28442	275.10187	1368.40283	1133.44849	123.83635	1412.58777	1180.28894	121.37412	1382.21667	1010.61823	35.76968	1455.60803	820.59778	1686.94214																														 
30	0.290	1515.49829	712.42511	1642.21973	1384.23950	713.96204	1631.40491	1516.80371	849.99042	1598.01636	1388.20178	849.43689	1592.83008	1455.57227	861.03973	1435.39221	1440.93994	893.66040	1103.68384	1456.65222	750.26184	1356.90186	1457.50806	712.03284	1180.93762	1369.56433	932.78235	1264.48596	1617.79590	816.30084	1384.23999	1679.43994	869.84814	1188.41284	1683.90454	907.23920	1082.25317	1705.14319	930.51892	933.53027	1666.71863	902.75690	804.70947	1698.79126	965.07355	819.70142	1698.86121	952.26923	728.49072	1295.14514	792.00641	1390.90771	1203.00562	794.34814	1191.85608	1187.15173	753.13367	1077.81165	1177.63477	680.69104	983.72247	1223.24670	558.35706	905.70966	1182.03442	599.83801	873.66187	1183.46912	525.63831	836.98535	1544.66785	707.48993	949.71960	1325.04883	721.06415	947.24786	1526.55359	869.80780	971.93842	1357.67456	870.37140	973.20166	1615.59229	714.11517	643.12610	1588.19006	663.21625	491.15161	1584.09131	639.61407	236.34215	1545.09338	604.74915	68.25658	1498.26929	642.33630	52.73518	1539.04004	457.61386	46.53166	1286.93396	816.49908	612.99921	1309.52173	837.00507	487.20111	1319.98474	1013.60028	279.01746	1368.15479	1126.58240	131.36237	1412.43262	1172.73669	131.23074	1382.69043	1009.68365	35.87759	1457.01709	809.88300	1688.29321																														 
31	0.300	1516.73450	701.53192	1643.70996	1385.21765	703.18982	1632.83691	1518.27209	839.20642	1599.61255	1389.68396	838.93011	1594.42639	1457.02649	850.28479	1436.93860	1442.07300	882.49237	1105.27136	1457.82251	739.55786	1358.56519	1458.61157	701.03131	1182.63245	1371.29834	922.04840	1265.85596	1619.14490	804.74670	1385.59412	1681.39063	856.33875	1189.23779	1686.26135	892.48022	1082.74646	1707.90576	914.73315	934.07227	1668.44824	886.64868	805.14386	1702.07190	948.69574	820.07770	1701.69031	935.31848	728.94714	1296.35034	781.51398	1392.37634	1204.74121	784.96948	1192.90588	1189.21619	744.73071	1078.32104	1179.30334	674.25403	982.46997	1223.87488	553.59583	901.46973	1183.02588	596.02844	870.40948	1183.76611	523.03741	831.96906	1545.93115	695.77631	952.43213	1326.70813	709.96002	948.62506	1527.29004	858.15265	974.03021	1358.71252	858.42535	973.99341	1616.20483	701.55811	645.83417	1588.51477	652.08820	493.08981	1585.21411	631.91791	237.15437	1544.72803	603.55981	68.30724	1498.34143	641.62872	53.48814	1538.85046	456.86990	44.74086	1287.18091	801.16058	613.13855	1309.09656	819.62067	486.95273	1319.98926	1000.78894	283.24030	1368.18628	1118.12769	139.39818	1412.81714	1163.61353	141.93394	1383.31543	1008.51898	35.96250	1458.38806	799.13959	1689.86792																														 
32	0.310	1517.87549	690.76294	1645.25391	1386.53650	692.72784	1634.49280	1519.69043	828.48218	1601.29614	1391.10779	828.40033	1596.18604	1458.45044	839.62848	1438.53113	1443.20068	871.37323	1107.02771	1458.93115	728.78790	1360.38293	1459.65149	689.97424	1184.53149	1372.73657	911.22229	1267.43347	1620.39099	793.17999	1387.30322	1683.19910	842.52948	1190.39001	1688.60718	877.34027	1083.53235	1710.12402	897.91058	934.52759	1670.31982	869.73444	806.04150	1705.31287	931.13385	820.54443	1704.66418	917.15936	729.45813	1297.57422	771.07196	1394.11011	1206.61121	775.87286	1194.25232	1191.41016	736.49243	1079.18054	1181.05042	668.25977	981.48901	1224.60437	549.46234	897.09125	1184.06653	593.09546	867.24738	1184.17236	521.10492	826.82959	1547.39978	684.00494	955.40656	1328.05432	697.34521	950.26031	1528.18555	846.54285	976.12860	1359.88513	846.52802	975.02405	1616.65735	688.76727	648.49225	1588.51355	641.49603	494.69388	1586.16553	625.21075	237.72319	1544.12012	602.05261	68.38669	1498.36963	640.99945	53.83217	1536.96350	455.97125	44.00755	1287.38293	785.03015	613.38202	1308.18176	801.54291	487.02216	1320.04138	986.79047	287.81238	1368.43372	1108.32336	148.17641	1413.63574	1152.45190	153.11671	1383.93359	1006.99731	36.23552	1459.81616	788.47021	1691.56531																														 
